<svg width="47" height="36" viewBox="0 0 47 36" fill="none" xmlns="http://www.w3.org/2000/svg">
<path d="M1.16846 12.8794C1.9031 12.2628 2.89889 11.9171 3.93686 11.9182C4.97483 11.9193 5.96999 12.2671 6.70348 12.8852L23.4873 27.0301L40.3168 12.9206C40.6808 12.6152 41.1127 12.3732 41.588 12.2083C42.0632 12.0434 42.5724 11.9589 43.0866 11.9596C43.6008 11.9603 44.1098 12.0462 44.5846 12.2124C45.0594 12.3785 45.4906 12.6217 45.8538 12.9281C46.2169 13.2344 46.5048 13.5979 46.7011 13.9978C46.8973 14.3977 46.998 14.8261 46.9974 15.2586C46.9968 15.6912 46.895 16.1193 46.6977 16.5187C46.5004 16.918 46.2115 17.2807 45.8475 17.5861L26.2444 34.0209C25.51 34.6365 24.515 34.9816 23.478 34.9805C22.441 34.9794 21.4467 34.6322 20.7133 34.0151L1.16416 17.5358C0.800488 17.2296 0.512097 16.8661 0.315475 16.4661C0.118853 16.0661 0.0178552 15.6375 0.0182552 15.2048C0.0186552 14.772 0.120445 14.3436 0.317806 13.944C0.515167 13.5445 0.804226 13.1849 1.16846 12.8794Z" fill="url(#paint0_linear_102_6)"/>
<path d="M1.16846 0.965356C1.9031 0.348775 2.89889 0.00301487 3.93686 0.00410664C4.97483 0.00519842 5.96999 0.353053 6.70348 0.971178L23.4873 15.1161L40.3168 1.00653C40.6808 0.701174 41.1127 0.459143 41.588 0.294259C42.0632 0.129374 42.5724 0.0448671 43.0866 0.0455605C43.6008 0.0462558 44.1098 0.132136 44.5846 0.298302C45.0594 0.46447 45.4906 0.707666 45.8538 1.01401C46.2169 1.32035 46.5048 1.68383 46.7011 2.08371C46.8973 2.48359 46.998 2.91203 46.9974 3.34457C46.9968 3.77711 46.895 4.20527 46.6977 4.60462C46.5004 5.00397 46.2115 5.36668 45.8475 5.67204L26.2444 22.1069C25.51 22.7224 24.515 23.0676 23.478 23.0665C22.441 23.0654 21.4467 22.7182 20.7133 22.101L1.16416 5.62175C0.800488 5.31553 0.512097 4.95204 0.315475 4.55206C0.118853 4.15208 0.0178552 3.72346 0.0182552 3.2907C0.0186552 2.85794 0.120445 2.42953 0.317806 2.02996C0.515167 1.6304 0.804226 1.27081 1.16846 0.965356Z" fill="#4200FF"/>
<defs>
<linearGradient id="paint0_linear_102_6" x1="23.8446" y1="46.0374" x2="23.8509" y2="11.9199" gradientUnits="userSpaceOnUse">
<stop stop-color="#00E0FF"/>
<stop offset="1" stop-color="#4200FF"/>
</linearGradient>
</defs>
</svg>
