<svg width="200" height="120" viewBox="0 0 200 120" fill="none" xmlns="http://www.w3.org/2000/svg">
<g clip-path="url(#clip0_215_40)">
<path d="M195.252 73.2882H188.22C188.07 73.2885 187.921 73.2574 187.786 73.1972C187.65 73.137 187.532 73.0493 187.438 72.9407C187.346 72.8348 187.281 72.711 187.248 72.5786C187.215 72.4462 187.215 72.3085 187.247 72.1761C187.908 69.4847 187.876 66.688 187.155 64.01C187.099 63.8052 187.122 63.5888 187.219 63.3979C187.317 63.2069 187.483 63.0531 187.69 62.9627C190.627 61.6934 193.325 61.7265 195.707 63.0607C195.832 63.1297 195.939 63.223 196.021 63.3341C196.102 63.4452 196.157 63.5714 196.181 63.704C196.686 66.6155 196.705 69.5811 196.238 72.4979C196.205 72.7175 196.087 72.9185 195.905 73.0638C195.724 73.2091 195.492 73.2888 195.252 73.2882Z" fill="#6C63FF"/>
<path d="M195.145 69.035H189.768C189.635 69.0348 189.507 68.9856 189.412 68.8983C189.318 68.811 189.265 68.6928 189.265 68.5694C189.265 68.4461 189.318 68.3278 189.412 68.2405C189.507 68.1533 189.635 68.1041 189.768 68.1038H195.145C195.279 68.1041 195.407 68.1533 195.501 68.2405C195.596 68.3278 195.649 68.4461 195.649 68.5694C195.649 68.6928 195.596 68.811 195.501 68.8983C195.407 68.9856 195.279 69.0348 195.145 69.035Z" fill="white"/>
<path d="M195.145 67.402H189.768C189.635 67.4018 189.507 67.3526 189.412 67.2653C189.318 67.178 189.265 67.0597 189.265 66.9364C189.265 66.8131 189.318 66.6948 189.412 66.6075C189.507 66.5202 189.635 66.471 189.768 66.4708H195.145C195.279 66.471 195.407 66.5202 195.501 66.6075C195.596 66.6948 195.649 66.8131 195.649 66.9364C195.649 67.0597 195.596 67.178 195.501 67.2653C195.407 67.3526 195.279 67.4018 195.145 67.402Z" fill="white"/>
<path d="M54.4268 72.6375C75.0647 72.6375 91.7951 57.1922 91.7951 38.1395C91.7951 19.0868 75.0647 3.64154 54.4268 3.64154C33.7889 3.64154 17.0585 19.0868 17.0585 38.1395C17.0585 57.1922 33.7889 72.6375 54.4268 72.6375Z" fill="#C4C4C4"/>
<path d="M97.7651 71.6168C101.673 71.6168 104.841 68.6922 104.841 65.0846C104.841 61.477 101.673 58.5524 97.7651 58.5524C93.8573 58.5524 90.6895 61.477 90.6895 65.0846C90.6895 68.6922 93.8573 71.6168 97.7651 71.6168Z" fill="#F2F2F2"/>
<path d="M133.364 86.3142C134.952 86.3142 136.239 85.1261 136.239 83.6605C136.239 82.1949 134.952 81.0068 133.364 81.0068C131.777 81.0068 130.49 82.1949 130.49 83.6605C130.49 85.1261 131.777 86.3142 133.364 86.3142Z" fill="#E6E6E6"/>
<path d="M155.559 94.0977C154.346 85.5463 148.543 77.1479 139.682 74.4151C143.23 83.2033 143.296 92.8668 139.869 101.696C138.534 105.096 136.666 108.75 137.967 112.162C138.777 114.285 140.734 115.901 142.915 116.906C145.096 117.911 147.513 118.381 149.899 118.843L150.37 119.198C154.098 111.29 156.771 102.649 155.559 94.0977Z" fill="#E6E6E6"/>
<path d="M139.596 74.5775C144.781 79.8728 148.028 86.5419 148.874 93.6375C149.045 95.1587 149.075 96.7156 148.725 98.218C148.372 99.68 147.601 101.028 146.492 102.122C145.481 103.161 144.316 104.116 143.596 105.364C142.837 106.68 142.818 108.169 143.353 109.559C144.008 111.259 145.286 112.64 146.587 113.95C148.031 115.406 149.555 116.896 150.178 118.833C150.254 119.068 150.644 118.946 150.568 118.711C149.485 115.342 145.921 113.445 144.207 110.414C143.408 109 143.065 107.355 143.795 105.853C144.433 104.539 145.634 103.553 146.668 102.509C147.753 101.413 148.583 100.213 149.005 98.7672C149.436 97.2887 149.472 95.7274 149.344 94.2089C149.025 90.7674 148.122 87.3937 146.667 84.2112C145.03 80.5705 142.729 77.2153 139.866 74.2908C139.689 74.1098 139.419 74.3977 139.596 74.5775H139.596Z" fill="white"/>
<path d="M148.747 91.3379C150.017 91.0453 151.133 90.3453 151.896 89.363C152.659 88.3806 153.019 87.18 152.911 85.9754C152.889 85.7317 152.477 85.7528 152.5 85.9968C152.602 87.1183 152.267 88.2367 151.555 89.1501C150.842 90.0635 149.8 90.7117 148.615 90.9778C148.358 91.0359 148.491 91.3957 148.747 91.3379Z" fill="white"/>
<path d="M147.08 101.658C144.774 100.404 143.063 98.3948 142.29 96.0293C142.214 95.7949 141.824 95.9166 141.9 96.1508C142.71 98.611 144.494 100.699 146.897 101.998C147.127 102.122 147.308 101.781 147.08 101.658Z" fill="white"/>
<path d="M144.65 80.9328C144.184 81.1406 143.67 81.2383 143.153 81.2171C142.636 81.196 142.133 81.0566 141.688 80.8116C141.461 80.6853 141.28 81.0267 141.506 81.1521C141.998 81.4208 142.554 81.574 143.125 81.5986C143.696 81.6231 144.265 81.5182 144.782 81.293C144.832 81.2755 144.874 81.2409 144.898 81.1962C144.922 81.1514 144.927 81.1 144.911 81.0522C144.893 81.0046 144.856 80.9653 144.807 80.943C144.758 80.9206 144.702 80.917 144.65 80.9328V80.9328Z" fill="white"/>
<path d="M112.839 89.8605C112.979 89.9431 113.118 90.0256 113.258 90.1114C115.128 91.2308 116.896 92.4885 118.545 93.8721C118.675 93.9772 118.804 94.0856 118.93 94.1939C122.864 97.5666 126.087 101.584 128.433 106.043C129.364 107.818 130.148 109.656 130.778 111.541C131.648 114.144 132.366 117.03 134.066 119.153C134.241 119.377 134.43 119.59 134.634 119.791L149.864 119.701C149.899 119.685 149.933 119.672 149.968 119.656L150.576 119.678C150.551 119.579 150.523 119.476 150.498 119.377C150.483 119.319 150.466 119.262 150.451 119.204C150.441 119.166 150.43 119.127 150.423 119.092C150.419 119.079 150.415 119.066 150.412 119.057C150.405 119.021 150.394 118.989 150.387 118.957C150.23 118.384 150.069 117.811 149.902 117.237C149.902 117.234 149.902 117.234 149.899 117.231C148.621 112.866 146.937 108.561 144.599 104.629C144.529 104.511 144.458 104.389 144.381 104.271C143.317 102.504 142.097 100.82 140.736 99.2365C139.987 98.3715 139.191 97.5421 138.352 96.7515C136.179 94.7123 133.671 93.0015 130.922 91.6817C125.441 89.0513 119.11 88.0686 113.283 89.7295C113.134 89.7721 112.988 89.8147 112.839 89.8605Z" fill="#E6E6E6"/>
<path d="M112.875 90.0387C120.469 91.3844 127.41 94.9049 132.713 100.1C133.842 101.22 134.881 102.446 135.582 103.84C136.253 105.204 136.517 106.709 136.345 108.198C136.215 109.59 135.908 111 136.147 112.397C136.398 113.869 137.355 115.069 138.688 115.881C140.32 116.874 142.241 117.267 144.134 117.59C146.236 117.95 148.426 118.292 150.186 119.492C150.4 119.638 150.632 119.324 150.419 119.178C147.356 117.09 143.274 117.556 139.928 116.089C138.368 115.405 137.021 114.281 136.624 112.676C136.277 111.272 136.593 109.818 136.738 108.41C136.889 106.931 136.769 105.511 136.163 104.123C135.544 102.703 134.554 101.436 133.461 100.295C130.962 97.7246 128.041 95.5328 124.804 93.7999C121.122 91.8034 117.097 90.403 112.904 89.6594C112.644 89.6135 112.617 89.993 112.875 90.0387Z" fill="white"/>
<path d="M131.112 98.3346C131.936 97.3949 132.37 96.2155 132.339 95.0072C132.307 93.7989 131.811 92.6402 130.94 91.7382C130.763 91.5562 130.448 91.8016 130.626 91.9838C131.439 92.8224 131.9 93.9017 131.927 95.027C131.954 96.1522 131.545 97.2493 130.772 98.1202C130.605 98.3096 130.946 98.523 131.112 98.3346Z" fill="white"/>
<path d="M136.512 107.5C133.853 107.782 131.176 107.128 129.017 105.669C128.803 105.524 128.571 105.838 128.784 105.983C131.035 107.497 133.821 108.173 136.588 107.874C136.851 107.845 136.774 107.472 136.512 107.5Z" fill="white"/>
<path d="M121.055 92.3037C120.819 92.7286 120.472 93.0926 120.045 93.363C119.619 93.6334 119.126 93.8018 118.612 93.853C118.348 93.8785 118.426 94.2519 118.688 94.2265C119.256 94.1675 119.8 93.9809 120.272 93.6831C120.744 93.3853 121.13 92.9853 121.395 92.5181C121.424 92.476 121.435 92.4253 121.425 92.3763C121.415 92.3272 121.385 92.2835 121.342 92.254C121.296 92.2258 121.241 92.2152 121.187 92.2245C121.134 92.2339 121.086 92.2623 121.055 92.3037H121.055Z" fill="white"/>
<path d="M185.888 60.6775L183.829 42.2724L183.285 34.6975L189.05 33.7351C189.05 33.7351 189.913 38.9425 190.668 41.9985C191.414 45.014 189.676 60.2734 189.63 60.6758C190.053 61.0253 190.351 61.4853 190.485 61.9948C190.62 62.5043 190.583 63.0394 190.38 63.5293C190.178 64.0191 189.819 64.4407 189.351 64.7382C188.884 65.0357 188.329 65.1952 187.761 65.1954C187.193 65.1957 186.639 65.0367 186.171 64.7396C185.703 64.4425 185.343 64.0213 185.14 63.5316C184.937 63.0419 184.9 62.5068 185.034 61.9972C185.167 61.4876 185.465 61.0274 185.888 60.6775Z" fill="#FFB8B8"/>
<path d="M162.33 117.189H159.397L158.002 106.746L162.331 106.746L162.33 117.189Z" fill="#FFB6B6"/>
<path d="M163.078 119.814L153.622 119.814V119.703C153.622 118.802 154.009 117.938 154.7 117.3C155.39 116.663 156.326 116.305 157.302 116.305H157.303L159.03 115.095L162.253 116.305L163.078 116.305L163.078 119.814Z" fill="#2F2E41"/>
<path d="M188.178 117.189H185.245L183.85 106.746L188.179 106.746L188.178 117.189Z" fill="#FFB6B6"/>
<path d="M188.926 119.814L179.469 119.814V119.703C179.47 118.802 179.857 117.938 180.548 117.3C181.238 116.663 182.174 116.305 183.15 116.305H183.15L184.878 115.095L188.101 116.305L188.926 116.305L188.926 119.814Z" fill="#2F2E41"/>
<path d="M183.717 61.2963L186.184 82.9301C186.184 82.9301 189.468 104.592 188.851 107.581C188.234 110.57 189.005 110.997 189.005 110.997L183.378 110.627C183.378 110.627 183.532 108.776 182.607 107.922C181.682 107.068 182.145 104.506 182.145 104.506L171.229 69.2667L164.6 87.7693C164.6 87.7693 163.521 108.122 163.367 108.407C163.213 108.691 162.75 112.534 162.75 112.534H157.046C157.046 112.534 157.817 110.257 156.737 109.545C155.658 108.834 154.733 109.403 155.658 108.122C156.583 106.841 156.892 105.276 156.583 104.564C156.275 103.852 156.275 101.006 156.275 101.006C156.275 101.006 156.738 62.5773 159.358 61.2963C161.979 60.0154 183.717 61.2963 183.717 61.2963Z" fill="#2F2E41"/>
<path d="M172.035 17.4934C175.386 17.4934 178.102 14.9857 178.102 11.8923C178.102 8.79894 175.386 6.29126 172.035 6.29126C168.685 6.29126 165.968 8.79894 165.968 11.8923C165.968 14.9857 168.685 17.4934 172.035 17.4934Z" fill="#FFB8B8"/>
<path d="M190.022 36.6713L184.055 38.6469L182.238 39.2481L180.911 23.6063L185.464 25.8353C185.471 25.8405 185.478 25.8467 185.484 25.8537C186.272 26.6576 186.932 27.5614 187.443 28.5378C189.94 33.2233 190.022 36.6713 190.022 36.6713Z" fill="#3F3D56"/>
<path d="M148.916 59.3561C148.916 59.3561 154.98 41.9604 155.087 41.7518C155.881 36.183 158.165 33.7266 158.508 33.9932L164.405 35.8791C164.405 35.8791 162.651 41.0067 161.463 44.0524C160.328 46.9626 152.557 60.399 152.339 60.75C152.573 61.2276 152.645 61.7597 152.545 62.2758C152.444 62.7918 152.177 63.2676 151.777 63.6402C151.377 64.0128 150.865 64.2646 150.307 64.3623C149.749 64.46 149.172 64.399 148.652 64.1874C148.132 63.9758 147.694 63.6235 147.396 63.1772C147.098 62.7309 146.954 62.2115 146.983 61.6879C147.011 61.1642 147.211 60.6609 147.557 60.2445C147.902 59.8281 148.376 59.5183 148.916 59.3561H148.916Z" fill="#FFB8B8"/>
<path d="M167.237 24.6136C167.237 24.6136 162.132 22.3037 160.152 26.8405C158.855 29.9001 158.241 31.2346 157.375 34.4214C157.375 34.4214 162.579 35.1421 164.248 37.857L167.237 24.6136Z" fill="#3F3D56"/>
<path d="M185.814 63.6542C174.064 65.8943 158.494 62.043 158.494 62.043L162.647 45.4208L161.171 28.0254C160.99 25.8981 162.303 23.9041 164.345 23.1975L167.164 22.2226L169.494 19.1427L176.15 19.3443L178.811 22.5777L180.911 23.6062L185.463 25.8352L185.483 25.8445V25.8537L184.055 38.6469L183.193 46.3605C183.193 46.3605 185.81 55.036 185.273 56.1866C184.736 57.3353 185.203 56.7804 185.333 57.3945C185.463 58.0086 185.862 58.0475 185.922 59.2572C185.984 60.4652 185.814 63.6542 185.814 63.6542Z" fill="#3F3D56"/>
<path d="M178.617 9.89783C178.138 9.46117 178.859 8.30514 178.723 7.69623C178.567 6.99811 177.733 6.97768 177.535 6.28882C177.321 5.54777 176.465 5.14435 175.675 4.90949C173.648 4.3107 171.485 4.21925 169.407 4.64446C168.487 4.85176 167.582 5.10926 166.695 5.41561C166.083 5.61445 166.673 5.07336 166.061 5.2722C165.83 5.31987 165.625 5.44509 165.488 5.62369C165.378 5.81573 165.526 6.12287 165.757 6.08397C165.01 6.38815 164.263 6.69233 163.516 6.99651C163.935 7.40174 164.354 7.80698 164.773 8.21224C164.177 8.05572 163.542 8.71141 163.777 9.24047C163.872 9.40748 164.009 9.55079 164.176 9.65804C164.344 9.76529 164.538 9.83326 164.74 9.8561C165.413 9.97699 164.903 10.5683 165.588 10.5568C166.274 10.5453 171.054 9.24799 171.388 9.80114C171.625 10.195 171.599 10.7168 171.938 11.0413C172.371 11.4565 173.128 11.3047 173.68 11.0343C174.232 10.7641 174.791 10.3926 175.412 10.4574C176.06 10.525 176.55 11.6306 176.71 12.2143C176.869 12.7981 176.768 13.4123 176.667 14.0071C176.533 14.7882 175.198 15.5692 175.064 16.3503C176.547 16.7287 178.137 15.5246 178.723 13.4306C178.665 12.1069 179.639 10.8283 178.617 9.89783Z" fill="#2F2E41"/>
<path d="M84.2989 82.6407C66.4387 82.6415 50.8991 70.3415 48.6035 53.5649L49.0422 53.5137C51.3095 70.0831 66.6598 82.2315 84.2992 82.2324C85.7979 82.2324 87.2952 82.1452 88.782 81.9713C108.237 79.7024 122.065 63.2446 119.607 45.284L120.046 45.2328C122.534 63.4166 108.534 80.0793 88.8375 82.3764C87.3321 82.5522 85.8163 82.6405 84.2989 82.6407Z" fill="#3F3D56"/>
<path d="M85.258 89.4685H78.2259C78.0756 89.4688 77.9273 89.4377 77.7919 89.3775C77.6565 89.3173 77.5377 89.2296 77.4443 89.121C77.352 89.0151 77.2869 88.8913 77.2539 88.7589C77.2209 88.6264 77.2207 88.4888 77.2535 88.3564C77.9208 85.6375 77.8814 82.8114 77.1386 80.1093C77.0879 79.9227 77.1023 79.726 77.1797 79.5474C77.2572 79.3688 77.3938 79.2173 77.57 79.1145C80.0028 77.7232 82.6518 77.7666 85.6688 79.2476C85.806 79.3142 85.9246 79.4092 86.0155 79.5252C86.1063 79.6412 86.1669 79.7749 86.1925 79.9161C86.6921 82.8174 86.7096 85.772 86.2443 88.6782C86.2112 88.8978 86.093 89.0988 85.9117 89.2441C85.7304 89.3894 85.4982 89.4691 85.258 89.4685Z" fill="#6C63FF"/>
<path d="M53.1966 54.7664H46.1643C46.014 54.7667 45.8657 54.7356 45.7303 54.6754C45.595 54.6152 45.4761 54.5275 45.3827 54.4189C45.2904 54.313 45.2253 54.1892 45.1923 54.0568C45.1592 53.9244 45.1591 53.7867 45.1919 53.6543C45.8617 50.926 45.8196 48.0899 45.0692 45.3796C45.0217 45.2012 45.0332 45.0137 45.1021 44.8413C45.1711 44.6689 45.2943 44.5195 45.456 44.4124C49.0721 42.0115 51.9198 42.0811 53.9202 44.6198C54.0104 44.7355 54.0703 44.869 54.0952 45.0096C54.6297 47.976 54.6593 51.0013 54.1829 53.9761C54.1498 54.1957 54.0316 54.3967 53.8503 54.542C53.669 54.6873 53.4367 54.767 53.1966 54.7664Z" fill="white"/>
<path d="M81.9724 83.3754H79.5533C79.4197 83.3752 79.2916 83.326 79.1973 83.2387C79.1029 83.1514 79.0499 83.0331 79.0499 82.9098C79.0499 82.7865 79.1029 82.6682 79.1973 82.5809C79.2916 82.4936 79.4197 82.4444 79.5533 82.4442H81.9724C82.1061 82.4442 82.2344 82.4932 82.329 82.5805C82.4236 82.6679 82.4768 82.7863 82.4768 82.9098C82.4768 83.0333 82.4236 83.1517 82.329 83.2391C82.2344 83.3264 82.1061 83.3754 81.9724 83.3754Z" fill="white"/>
<path d="M84.9301 85.2154H79.5533C79.4197 85.2151 79.2916 85.1659 79.1973 85.0786C79.1029 84.9913 79.0499 84.8731 79.0499 84.7497C79.0499 84.6264 79.1029 84.5081 79.1973 84.4208C79.2916 84.3335 79.4197 84.2844 79.5533 84.2841H84.9301C85.0637 84.2844 85.1917 84.3335 85.2861 84.4208C85.3805 84.5081 85.4335 84.6264 85.4335 84.7497C85.4335 84.8731 85.3805 84.9913 85.2861 85.0786C85.1917 85.1659 85.0637 85.2151 84.9301 85.2154Z" fill="white"/>
<path d="M51.0164 48.2651H48.5973C48.4637 48.2649 48.3357 48.2157 48.2413 48.1284C48.1469 48.0411 48.0939 47.9228 48.0939 47.7995C48.0939 47.6762 48.1469 47.5579 48.2413 47.4706C48.3357 47.3833 48.4637 47.3341 48.5973 47.3339H51.0164C51.15 47.3341 51.278 47.3833 51.3724 47.4706C51.4668 47.5579 51.5198 47.6762 51.5198 47.7995C51.5198 47.9228 51.4668 48.0411 51.3724 48.1284C51.278 48.2157 51.15 48.2649 51.0164 48.2651Z" fill="#3F3D56"/>
<path d="M51.0164 49.8982H48.5973C48.4637 49.898 48.3357 49.8488 48.2413 49.7615C48.1469 49.6742 48.0939 49.5559 48.0939 49.4325C48.0939 49.3092 48.1469 49.1909 48.2413 49.1036C48.3357 49.0163 48.4637 48.9671 48.5973 48.9669H51.0164C51.15 48.9671 51.278 49.0163 51.3724 49.1036C51.4668 49.1909 51.5198 49.3092 51.5198 49.4325C51.5198 49.5559 51.4668 49.6742 51.3724 49.7615C51.278 49.8488 51.15 49.898 51.0164 49.8982Z" fill="#3F3D56"/>
<path d="M51.0164 51.5312H48.5973C48.4637 51.5309 48.3357 51.4817 48.2413 51.3944C48.1469 51.3071 48.0939 51.1889 48.0939 51.0655C48.0939 50.9422 48.1469 50.8239 48.2413 50.7366C48.3357 50.6493 48.4637 50.6002 48.5973 50.5999H51.0164C51.15 50.6002 51.278 50.6493 51.3724 50.7366C51.4668 50.8239 51.5198 50.9422 51.5198 51.0655C51.5198 51.1889 51.4668 51.3071 51.3724 51.3944C51.278 51.4817 51.15 51.5309 51.0164 51.5312Z" fill="#3F3D56"/>
<path d="M147.842 62.4362H125.363C124.76 62.4356 124.183 62.2144 123.757 61.8211C123.331 61.4278 123.091 60.8946 123.091 60.3385V47.5566C123.091 47.0005 123.331 46.4673 123.757 46.074C124.183 45.6807 124.76 45.4595 125.363 45.4589H147.842C148.445 45.4595 149.022 45.6807 149.448 46.074C149.874 46.4673 150.114 47.0005 150.115 47.5567V60.3385C150.114 60.8946 149.874 61.4278 149.448 61.8211C149.022 62.2144 148.445 62.4356 147.842 62.4362Z" fill="#E6E6E6"/>
<path d="M138.911 60.7898H126.943C126.379 60.7892 125.838 60.5821 125.439 60.2137C125.04 59.8454 124.816 59.346 124.815 58.8251V49.0698C124.816 48.5489 125.04 48.0495 125.439 47.6812C125.838 47.3129 126.379 47.1057 126.943 47.1052H146.262C146.827 47.1057 147.368 47.3129 147.766 47.6812C148.165 48.0496 148.39 48.5489 148.39 49.0698V52.0386C148.388 54.3587 147.388 56.5831 145.611 58.2237C143.834 59.8644 141.424 60.7872 138.911 60.7898Z" fill="#C4C4C4"/>
<path d="M144.335 52.447H128.87C128.737 52.447 128.608 52.398 128.514 52.3107C128.419 52.2233 128.366 52.1049 128.366 51.9814C128.366 51.8579 128.419 51.7395 128.514 51.6521C128.608 51.5648 128.737 51.5157 128.87 51.5157H144.335C144.469 51.5157 144.597 51.5648 144.692 51.6521C144.786 51.7395 144.839 51.8579 144.839 51.9814C144.839 52.1049 144.786 52.2233 144.692 52.3107C144.597 52.398 144.469 52.447 144.335 52.447Z" fill="#6C63FF"/>
<path d="M131.289 54.2869H128.87C128.737 54.2866 128.609 54.2374 128.514 54.1501C128.42 54.0629 128.367 53.9446 128.367 53.8213C128.367 53.6979 128.42 53.5797 128.514 53.4924C128.609 53.4051 128.737 53.3559 128.87 53.3557H131.289C131.423 53.3559 131.551 53.4051 131.645 53.4924C131.74 53.5797 131.793 53.6979 131.793 53.8213C131.793 53.9446 131.74 54.0629 131.645 54.1501C131.551 54.2374 131.423 54.2866 131.289 54.2869Z" fill="#6C63FF"/>
<path d="M135.574 56.1268H128.87C128.737 56.1268 128.608 56.0777 128.514 55.9904C128.419 55.9031 128.366 55.7846 128.366 55.6612C128.366 55.5377 128.419 55.4192 128.514 55.3319C128.608 55.2446 128.737 55.1956 128.87 55.1956H135.574C135.708 55.1956 135.836 55.2446 135.931 55.3319C136.025 55.4192 136.078 55.5377 136.078 55.6612C136.078 55.7846 136.025 55.9031 135.931 55.9904C135.836 56.0777 135.708 56.1268 135.574 56.1268Z" fill="#6C63FF"/>
<path d="M122.306 49.5943C124.932 49.5943 127.061 47.6288 127.061 45.2043C127.061 42.7797 124.932 40.8142 122.306 40.8142C119.68 40.8142 117.551 42.7797 117.551 45.2043C117.551 47.6288 119.68 49.5943 122.306 49.5943Z" fill="#3F3D56"/>
<path d="M68.476 11.8089C68.7908 10.3337 69.4172 8.93028 70.3195 7.67866C71.2218 6.42703 72.3823 5.35174 73.7348 4.51416C76.4662 2.82261 79.8136 2.20204 83.0406 2.78897C84.6384 3.07959 86.1586 3.6579 87.5144 4.49091C88.8702 5.32391 90.0349 6.39528 90.9422 7.64385C91.8494 8.89242 92.4814 10.2937 92.8021 11.7678C93.1227 13.2419 93.1257 14.7598 92.8109 16.2349L92.3769 16.156C92.99 13.2831 92.3418 10.3031 90.5749 7.87139C88.8079 5.43973 86.067 3.75565 82.9551 3.18965C79.8432 2.62364 76.6152 3.22207 73.9812 4.85328C71.3473 6.48449 69.5231 9.01486 68.91 11.8877L68.476 11.8089Z" fill="#3F3D56"/>
<path d="M73.1852 19.0318L66.1589 19.3005C66.0088 19.3065 65.8592 19.2811 65.7213 19.2261C65.5833 19.1711 65.4606 19.0881 65.3625 18.9831C65.2655 18.8808 65.1949 18.7596 65.156 18.6286C65.117 18.4975 65.1107 18.36 65.1376 18.2264C65.6768 15.5121 65.5196 12.719 64.6788 10.0709C64.6138 9.86836 64.627 9.65132 64.716 9.45677C64.8051 9.26221 64.9644 9.10218 65.167 9.00396C68.0449 7.6236 70.7415 7.5536 73.1814 8.79567C73.3093 8.85981 73.4205 8.94893 73.5072 9.05681C73.594 9.16469 73.6542 9.28874 73.6837 9.42031C74.3188 12.31 74.471 15.2723 74.1352 18.2045C74.1119 18.4251 74.0029 18.6305 73.8282 18.7826C73.6535 18.9347 73.4251 19.0233 73.1852 19.0318Z" fill="#6C63FF"/>
<path d="M72.8878 14.7864L67.5155 14.9919C67.4493 14.9944 67.3832 14.985 67.3209 14.9639C67.2587 14.9429 67.2015 14.9108 67.1528 14.8694C67.104 14.828 67.0645 14.7781 67.0366 14.7226C67.0087 14.6671 66.993 14.607 66.9902 14.5459C66.9875 14.4848 66.9978 14.4237 67.0206 14.3663C67.0435 14.3088 67.0783 14.2561 67.1232 14.2111C67.1681 14.1661 67.2222 14.1297 67.2823 14.104C67.3425 14.0783 67.4075 14.0638 67.4737 14.0614L72.8461 13.8559C72.9122 13.8534 72.9783 13.8629 73.0405 13.884C73.1027 13.905 73.1598 13.9372 73.2085 13.9786C73.2573 14.02 73.2967 14.0699 73.3245 14.1253C73.3524 14.1808 73.3681 14.2408 73.3709 14.3019C73.3736 14.363 73.3633 14.424 73.3405 14.4814C73.3177 14.5388 73.2829 14.5915 73.238 14.6365C73.1932 14.6815 73.1392 14.7179 73.0791 14.7436C73.019 14.7694 72.954 14.7839 72.8878 14.7864Z" fill="white"/>
<path d="M72.8146 13.1548L67.4423 13.3602C67.3086 13.3653 67.1783 13.3212 67.0798 13.2375C66.9814 13.1539 66.923 13.0376 66.9175 12.9142C66.912 12.7908 66.9597 12.6705 67.0503 12.5796C67.1409 12.4887 67.2669 12.4348 67.4006 12.4297L72.7729 12.2243C72.9065 12.2192 73.0369 12.2633 73.1353 12.3469C73.2337 12.4306 73.2921 12.5469 73.2977 12.6702C73.3032 12.7936 73.2554 12.914 73.1648 13.0049C73.0742 13.0957 72.9483 13.1496 72.8146 13.1548Z" fill="white"/>
<path d="M119.167 16.9774H96.688C96.0856 16.9768 95.508 16.7556 95.082 16.3623C94.656 15.969 94.4164 15.4358 94.4157 14.8796V2.0978C94.4164 1.54162 94.656 1.0084 95.082 0.615127C95.508 0.22185 96.0856 0.00063051 96.688 0H119.167C119.77 0.000628348 120.347 0.221847 120.773 0.615124C121.199 1.0084 121.439 1.54162 121.44 2.0978V14.8796C121.439 15.4358 121.199 15.969 120.773 16.3623C120.347 16.7556 119.77 16.9768 119.167 16.9774Z" fill="#E6E6E6"/>
<path d="M110.236 15.331H98.2682C97.7039 15.3304 97.163 15.1233 96.764 14.755C96.365 14.3866 96.1406 13.8873 96.14 13.3664V3.61101C96.1406 3.09012 96.365 2.59074 96.764 2.22242C97.163 1.85411 97.7039 1.64694 98.2682 1.64636H117.587C118.151 1.64694 118.692 1.85412 119.091 2.22243C119.49 2.59075 119.715 3.09013 119.715 3.61101V6.57976C119.713 8.89995 118.713 11.1243 116.936 12.765C115.159 14.4056 112.749 15.3284 110.236 15.331Z" fill="#C4C4C4"/>
<path d="M115.66 6.9882H100.195C100.061 6.9882 99.933 6.93914 99.8385 6.85182C99.7439 6.7645 99.6907 6.64606 99.6907 6.52257C99.6907 6.39908 99.7439 6.28065 99.8385 6.19332C99.933 6.106 100.061 6.05695 100.195 6.05695H115.66C115.794 6.05695 115.922 6.106 116.017 6.19332C116.111 6.28065 116.165 6.39908 116.165 6.52257C116.165 6.64606 116.111 6.7645 116.017 6.85182C115.922 6.93914 115.794 6.9882 115.66 6.9882Z" fill="#6C63FF"/>
<path d="M102.614 8.82808H100.195C100.062 8.82782 99.9337 8.77865 99.8394 8.69135C99.745 8.60405 99.692 8.48576 99.692 8.36243C99.692 8.23911 99.745 8.12081 99.8394 8.03352C99.9337 7.94622 100.062 7.89705 100.195 7.89679H102.614C102.748 7.89705 102.876 7.94622 102.97 8.03352C103.065 8.12081 103.118 8.23911 103.118 8.36243C103.118 8.48576 103.065 8.60405 102.97 8.69135C102.876 8.77865 102.748 8.82782 102.614 8.82808Z" fill="#6C63FF"/>
<path d="M106.899 10.668H100.195C100.061 10.668 99.933 10.6189 99.8384 10.5316C99.7438 10.4443 99.6907 10.3258 99.6907 10.2023C99.6907 10.0788 99.7438 9.9604 99.8384 9.87308C99.933 9.78575 100.061 9.73669 100.195 9.73669H106.899C107.032 9.73695 107.16 9.78613 107.255 9.87342C107.349 9.96072 107.402 10.079 107.402 10.2023C107.402 10.3257 107.349 10.444 107.255 10.5313C107.16 10.6185 107.032 10.6677 106.899 10.668Z" fill="#6C63FF"/>
<path d="M97.0874 19.1901C98.4739 17.1309 97.7897 14.424 95.5592 13.144C93.3287 11.864 90.3966 12.4956 89.0101 14.5548C87.6236 16.6139 88.3078 19.3208 90.5383 20.6008C92.7687 21.8808 95.7009 21.2492 97.0874 19.1901Z" fill="#3F3D56"/>
<path d="M199.797 120H134.464C134.41 120 134.358 119.98 134.32 119.945C134.282 119.91 134.261 119.862 134.261 119.812C134.261 119.763 134.282 119.715 134.32 119.68C134.358 119.645 134.41 119.625 134.464 119.625H199.797C199.851 119.625 199.902 119.645 199.94 119.68C199.979 119.715 200 119.763 200 119.812C200 119.862 199.979 119.91 199.94 119.945C199.902 119.98 199.851 120 199.797 120Z" fill="#4200FF"/>
<path d="M29.7018 51.1202C27.7508 46.3587 27.9286 41.0768 30.196 36.4364C32.4634 31.7959 36.6347 28.1771 41.7923 26.376C46.9499 24.5748 52.6713 24.7389 57.6978 26.8322C62.7244 28.9254 66.6443 32.7763 68.5953 37.5378L68.1816 37.6823C67.2361 35.3748 65.8076 33.2619 63.9776 31.4641C62.1476 29.6663 59.9519 28.2188 57.516 27.2044C55.0801 26.19 52.4515 25.6284 49.7805 25.5518C47.1095 25.4752 44.4483 25.885 41.9489 26.7579C39.4494 27.6307 37.1607 28.9495 35.2133 30.639C33.2659 32.3284 31.6981 34.3554 30.5993 36.6042C29.5004 38.8531 28.8922 41.2797 28.8092 43.7455C28.7262 46.2114 29.1701 48.6682 30.1156 50.9756L29.7018 51.1202Z" fill="#3F3D56"/>
<path d="M47.8898 32.108H40.8576C40.7074 32.1083 40.559 32.0772 40.4237 32.017C40.2883 31.9568 40.1695 31.8691 40.0761 31.7604C39.9838 31.6546 39.9187 31.5308 39.8857 31.3984C39.8526 31.2659 39.8525 31.1283 39.8853 30.9958C40.551 28.2834 40.5134 25.4641 39.7754 22.7676C39.7231 22.5767 39.7391 22.3754 39.8211 22.1937C39.9032 22.012 40.0467 21.8597 40.2304 21.7597C42.7777 20.3908 45.498 20.4325 48.3155 21.8842C48.4488 21.9513 48.5638 22.0457 48.6517 22.1601C48.7396 22.2745 48.798 22.406 48.8225 22.5444C49.3239 25.4493 49.342 28.4078 48.8761 31.3177C48.843 31.5372 48.7249 31.7383 48.5435 31.8836C48.3622 32.0289 48.13 32.1086 47.8898 32.108Z" fill="#6C63FF"/>
<path d="M44.6041 25.8109H42.185C42.0514 25.8106 41.9234 25.7614 41.8291 25.6741C41.7347 25.5868 41.6817 25.4685 41.6817 25.3452C41.6817 25.2219 41.7347 25.1036 41.8291 25.0163C41.9234 24.929 42.0514 24.8798 42.185 24.8796H44.6041C44.7377 24.8798 44.8657 24.929 44.9601 25.0163C45.0545 25.1036 45.1075 25.2219 45.1075 25.3452C45.1075 25.4685 45.0545 25.5868 44.9601 25.6741C44.8657 25.7614 44.7377 25.8106 44.6041 25.8109Z" fill="white"/>
<path d="M47.562 27.6507H42.185C42.0512 27.6507 41.9229 27.6017 41.8283 27.5143C41.7337 27.427 41.6806 27.3086 41.6806 27.1851C41.6806 27.0616 41.7337 26.9431 41.8283 26.8558C41.9229 26.7685 42.0512 26.7194 42.185 26.7194H47.562C47.6956 26.7197 47.8236 26.7689 47.918 26.8562C48.0123 26.9435 48.0653 27.0617 48.0653 27.1851C48.0653 27.3084 48.0123 27.4267 47.918 27.514C47.8236 27.6013 47.6956 27.6505 47.562 27.6507Z" fill="white"/>
<path d="M24.7519 50.863H2.27232C1.66987 50.8624 1.09229 50.6411 0.666297 50.2479C0.240301 49.8546 0.000679452 49.3214 0 48.7652V35.9834C0.000679452 35.4272 0.240301 34.894 0.666297 34.5007C1.09229 34.1074 1.66987 33.8862 2.27232 33.8856H24.7519C25.3543 33.8862 25.9319 34.1074 26.3579 34.5007C26.7839 34.894 27.0235 35.4272 27.0242 35.9834V48.7652C27.0235 49.3214 26.7839 49.8546 26.3579 50.2479C25.9319 50.6411 25.3543 50.8624 24.7519 50.863Z" fill="#E6E6E6"/>
<path d="M15.8204 49.2166H3.85252C3.28829 49.216 2.74735 49.0088 2.34837 48.6405C1.94939 48.2722 1.72496 47.7728 1.7243 47.2519V37.4966C1.72496 36.9757 1.94939 36.4763 2.34837 36.108C2.74735 35.7397 3.28829 35.5325 3.85252 35.5319H23.1718C23.736 35.5325 24.2769 35.7397 24.6759 36.108C25.0749 36.4763 25.2993 36.9757 25.2999 37.4966V40.4653C25.297 42.7855 24.2974 45.0099 22.5203 46.6505C20.7431 48.2911 18.3336 49.214 15.8204 49.2166Z" fill="#C4C4C4"/>
<path d="M21.2445 40.8737H5.77969C5.64593 40.8737 5.51764 40.8247 5.42305 40.7373C5.32847 40.65 5.27533 40.5316 5.27533 40.4081C5.27533 40.2846 5.32847 40.1661 5.42305 40.0788C5.51764 39.9915 5.64593 39.9424 5.77969 39.9424H21.2445C21.3783 39.9424 21.5066 39.9915 21.6011 40.0788C21.6957 40.1661 21.7489 40.2846 21.7489 40.4081C21.7489 40.5316 21.6957 40.65 21.6011 40.7373C21.5066 40.8247 21.3783 40.8737 21.2445 40.8737Z" fill="#6C63FF"/>
<path d="M8.19879 42.7137H5.7797C5.64611 42.7134 5.51809 42.6642 5.42372 42.5769C5.32936 42.4896 5.27637 42.3713 5.27637 42.248C5.27637 42.1247 5.32936 42.0064 5.42372 41.9191C5.51809 41.8318 5.64611 41.7826 5.7797 41.7823H8.19879C8.33238 41.7826 8.4604 41.8318 8.55476 41.9191C8.64913 42.0064 8.70212 42.1247 8.70212 42.248C8.70212 42.3713 8.64913 42.4896 8.55476 42.5769C8.4604 42.6642 8.33238 42.7134 8.19879 42.7137Z" fill="#6C63FF"/>
<path d="M12.4833 44.5535H5.7797C5.64611 44.5533 5.51809 44.5041 5.42372 44.4168C5.32936 44.3295 5.27637 44.2112 5.27637 44.0879C5.27637 43.9646 5.32936 43.8463 5.42372 43.759C5.51809 43.6717 5.64611 43.6225 5.7797 43.6223H12.4833C12.6171 43.6223 12.7454 43.6713 12.84 43.7586C12.9346 43.846 12.9877 43.9644 12.9877 44.0879C12.9877 44.2114 12.9346 44.3298 12.84 44.4171C12.7454 44.5045 12.6171 44.5535 12.4833 44.5535Z" fill="#6C63FF"/>
<path d="M33.6276 52.6674C35.0141 50.6082 34.3299 47.9013 32.0994 46.6213C29.869 45.3413 26.9368 45.973 25.5503 48.0321C24.1638 50.0912 24.848 52.7981 27.0785 54.0781C29.309 55.3581 32.2411 54.7265 33.6276 52.6674Z" fill="#3F3D56"/>
<path d="M71.9913 44.3558H64.9591C64.8088 44.3561 64.6605 44.325 64.5251 44.2648C64.3897 44.2046 64.2709 44.1169 64.1775 44.0082C64.0852 43.9024 64.0201 43.7786 63.9871 43.6462C63.954 43.5137 63.9539 43.3761 63.9867 43.2436C64.6512 40.5359 64.6149 37.7217 63.8807 35.0294C63.8286 34.8359 63.8463 34.632 63.931 34.4486C64.0158 34.2653 64.163 34.1124 64.3504 34.0132C67.7665 32.208 70.4714 32.2578 72.62 34.1656C72.7705 34.3017 72.8697 34.479 72.9027 34.6711C73.4247 37.6146 73.45 40.6149 72.9775 43.5655C72.9444 43.785 72.8263 43.9861 72.6449 44.1314C72.4636 44.2767 72.2314 44.3564 71.9913 44.3558Z" fill="#00E0FF"/>
<path d="M69.1478 38.2628H66.7286C66.595 38.2625 66.467 38.2133 66.3726 38.126C66.2783 38.0387 66.2253 37.9205 66.2253 37.7971C66.2253 37.6738 66.2783 37.5555 66.3726 37.4682C66.467 37.3809 66.595 37.3317 66.7286 37.3315H69.1478C69.2814 37.3317 69.4094 37.3809 69.5037 37.4682C69.5981 37.5555 69.6511 37.6738 69.6511 37.7971C69.6511 37.9205 69.5981 38.0387 69.5037 38.126C69.4094 38.2133 69.2814 38.2625 69.1478 38.2628Z" fill="white"/>
<path d="M72.1056 40.1026H66.7287C66.5949 40.1026 66.4666 40.0535 66.372 39.9662C66.2774 39.8789 66.2243 39.7605 66.2243 39.637C66.2243 39.5135 66.2774 39.3951 66.372 39.3078C66.4666 39.2204 66.5949 39.1714 66.7287 39.1714H72.1056C72.2392 39.1716 72.3672 39.2208 72.4616 39.3081C72.5559 39.3954 72.6089 39.5137 72.6089 39.637C72.6089 39.7603 72.5559 39.8786 72.4616 39.9659C72.3672 40.0532 72.2392 40.1023 72.1056 40.1026Z" fill="white"/>
</g>
<defs>
<clipPath id="clip0_215_40">
<rect width="200" height="120" fill="white"/>
</clipPath>
</defs>
</svg>
