<svg width="80" height="65" viewBox="0 0 80 65" fill="none" xmlns="http://www.w3.org/2000/svg">
<path d="M42.6965 23.21L48.9659 23.4281L59.0606 43.0548L56.0743 47.6846L42.6965 23.21Z" fill="#C4C4C4"/>
<path d="M79.6833 24.4113L73.4141 24.1932L57.1861 50.2819L59.9932 56.0514L79.6833 24.4113Z" fill="#C4C4C4"/>
<rect width="0.848396" height="36.0695" transform="matrix(-0.926936 -0.372135 0.548355 -0.838149 56.8481 46.5673)" fill="#C4C4C4"/>
<rect width="0.848396" height="30.6591" transform="matrix(-0.926936 -0.372135 0.548355 -0.838149 48.758 63.9786)" fill="#C4C4C4"/>
<path d="M2.17273 50.7415L2.84886 49.0094L40.4232 -1.40285e-05L40.1948 1.10046L21.4278 26.2009L2.17273 50.7415Z" fill="#C4C4C4"/>
<path d="M16.4174 3.07825L19.9653 5.92772L21.1056 23.8187L16.4174 29.3308V3.07825Z" fill="#C4C4C4"/>
<path d="M16.4174 41.1023V36.431L38.4014 39.2338L41.7592 41.1023H16.4174Z" fill="#C4C4C4"/>
<path d="M16.4174 41.1023H21.6125V27.6235L16.4174 34.4156V41.1023Z" fill="#C4C4C4"/>
</svg>
